# xmcd CD database file
#
# Track frame offsets:
#	150
#	23025
#	36675
#	53700
#	69900
#	88575
#	106425
#	122475
#	140250
#	153900
#	169800
#	188925
#	206775
#	223725
#	240225
#	258450
#	282000
#	308775
#	334200
#
# Disc length: 4654 seconds
#
# Revision: 1
# Processed by: cddbd v1.5.1PL2 Copyright (c) Steve Scherf et al.
# Submitted via: freeDBTagger 0.8.2.1
#
DISCID=11122c13
DTITLE=ORANGE RANGE - ИATURAL
DYEAR=2005
DGENRE=blues
TTITLE0=yumekaze
TTITLE1=夢人
TTITLE2=お願い！セニョリータ
TTITLE3=Winter Winner
TTITLE4=CRAZYBAND
TTITLE5=雨
TTITLE6=GOD69
TTITLE7=HYSTERIC TAXI
TTITLE8=pe nyom pong
TTITLE9=盃 Jammer
TTITLE10=＊〜アスタリスク〜
TTITLE11=sunrise
TTITLE12=U topia
TTITLE13=BETWEEN
TTITLE14=re-cycle
TTITLE15=キズナ
TTITLE16=ラヴ・パレード
TTITLE17=Иatural Pop
TTITLE18="Kirikirimai〜Fantastic Four Remix〜"
EXTD=
EXTT0=
EXTT1=
EXTT2=
EXTT3=
EXTT4=
EXTT5=
EXTT6=
EXTT7=
EXTT8=
EXTT9=
EXTT10=
EXTT11=
EXTT12=
EXTT13=
EXTT14=
EXTT15=
EXTT16=
EXTT17=
EXTT18=
PLAYORDER=
